HIERARCHY
ROOT Hips
{
	OFFSET 0.000000 0.000000 0.000000
	CHANNELS 6 Xposition Yposition Zposition Zrotation Yrotation Xrotation 
	JOINT LHipJoint
	{
		OFFSET 0.000000 0.000000 0.000000
		CHANNELS 3 Zrotation Yrotation Xrotation
		JOINT LeftUpLeg
		{
			OFFSET 1.363060 -1.794630 0.839290
			CHANNELS 3 Zrotation Yrotation Xrotation
			JOINT LeftLeg
			{
				OFFSET 2.448110 -6.726130 0.000000
				CHANNELS 3 Zrotation Yrotation Xrotation
				JOINT LeftFoot
				{
					OFFSET 2.562200 -7.039590 0.000000
					CHANNELS 3 Zrotation Yrotation Xrotation
					JOINT LeftToeBase
					{
						OFFSET 0.157640 -0.433110 2.322550
						CHANNELS 3 Zrotation Yrotation Xrotation
						End Site
						{
							OFFSET 0.000000 0.000000 0.000000
						}
					}
				}
			}
		}
	}
	JOINT RHipJoint
	{
		OFFSET 0.000000 0.000000 0.000000
		CHANNELS 3 Zrotation Yrotation Xrotation
		JOINT RightUpLeg
		{
			OFFSET -1.305520 -1.794630 0.839290
			CHANNELS 3 Zrotation Yrotation Xrotation
			JOINT RightLeg
			{
				OFFSET -2.542530 -6.985550 0.000000
				CHANNELS 3 Zrotation Yrotation Xrotation
				JOINT RightFoot
				{
					OFFSET -2.568260 -7.056230 0.000000
					CHANNELS 3 Zrotation Yrotation Xrotation
					JOINT RightToeBase
					{
						OFFSET -0.164730 -0.452590 2.363150
						CHANNELS 3 Zrotation Yrotation Xrotation
						End Site
						{
							OFFSET 0.000000 0.000000 0.000000
						}
					}
				}
			}
		}
	}
	JOINT LowerBack
	{
		OFFSET 0.000000 0.000000 0.000000
		CHANNELS 3 Zrotation Yrotation Xrotation
		JOINT Spine
		{
			OFFSET 0.028270 2.035590 -0.193380
			CHANNELS 3 Zrotation Yrotation Xrotation
			JOINT Spine1
			{
				OFFSET 0.056720 2.048850 -0.042750
				CHANNELS 3 Zrotation Yrotation Xrotation
				JOINT Neck
				{
					OFFSET 0.000000 0.000000 0.000000
					CHANNELS 3 Zrotation Yrotation Xrotation
					JOINT Neck1
					{
						OFFSET -0.054170 1.746240 0.172020
						CHANNELS 3 Zrotation Yrotation Xrotation
						JOINT Head
						{
							OFFSET 0.104070 1.761360 -0.123970
							CHANNELS 3 Zrotation Yrotation Xrotation
							End Site
							{
								OFFSET 0.000000 0.000000 0.000000
							}
						}
					}
				}
				JOINT LeftShoulder
				{
					OFFSET 0.000000 0.000000 0.000000
					CHANNELS 3 Zrotation Yrotation Xrotation
					JOINT LeftArm
					{
						OFFSET 3.362410 1.200890 -0.311210
						CHANNELS 3 Zrotation Yrotation Xrotation
						JOINT LeftForeArm
						{
							OFFSET 4.983000 -0.000000 -0.000000
							CHANNELS 3 Zrotation Yrotation Xrotation
							JOINT LeftHand
							{
								OFFSET 3.483560 -0.000000 -0.000000
								CHANNELS 3 Zrotation Yrotation Xrotation
								JOINT LeftFingerBase
								{
									OFFSET 0.000000 0.000000 0.000000
									CHANNELS 3 Zrotation Yrotation Xrotation
									JOINT LeftHandIndex1
									{
										OFFSET 0.715260 -0.000000 -0.000000
										CHANNELS 3 Zrotation Yrotation Xrotation
										End Site
										{
											OFFSET 0.000000 0.000000 0.000000
										}
									}
								}
								JOINT LThumb
								{
									OFFSET 0.000000 0.000000 0.000000
									CHANNELS 3 Zrotation Yrotation Xrotation
									End Site
									{
										OFFSET 0.000000 0.000000 0.000000
									}
								}
							}
						}
					}
				}
				JOINT RightShoulder
				{
					OFFSET 0.000000 0.000000 0.000000
					CHANNELS 3 Zrotation Yrotation Xrotation
					JOINT RightArm
					{
						OFFSET -3.136600 1.374050 -0.404650
						CHANNELS 3 Zrotation Yrotation Xrotation
						JOINT RightForeArm
						{
							OFFSET -5.241900 -0.000000 -0.000000
							CHANNELS 3 Zrotation Yrotation Xrotation
							JOINT RightHand
							{
								OFFSET -3.444170 -0.000000 -0.000000
								CHANNELS 3 Zrotation Yrotation Xrotation
								JOINT RightFingerBase
								{
									OFFSET 0.000000 0.000000 0.000000
									CHANNELS 3 Zrotation Yrotation Xrotation
									JOINT RightHandIndex1
									{
										OFFSET -0.622530 -0.000000 -0.000000
										CHANNELS 3 Zrotation Yrotation Xrotation
										End Site
										{
											OFFSET 0.000000 0.000000 0.000000
										}
									}
								}
								JOINT RThumb
								{
									OFFSET 0.000000 0.000000 0.000000
									CHANNELS 3 Zrotation Yrotation Xrotation
									End Site
									{
										OFFSET 0.000000 0.000000 0.000000
									}
								}
							}
						}
					}
				}
			}
		}
	}
}
MOTION
Frames: 6
Frame Time: 0.008333
49.421136 17.470378 0.345027 -165.357576 -84.568416 161.236456 4.017578 -0.387132 0.094534 -25.703665 -20.240087 -1.946690 0.681493 12.810963 35.051941 -3.613508 17.260922 -22.713927 0.032300 1.159400 3.187600 -6.806834 0.946188 -1.610088 34.738851 14.582445 0.422334 -1.260153 -12.395716 33.319144 1.163359 -16.648078 -34.542965 -0.028000 1.080600 -2.970600 -4.239331 1.749667 2.883449 3.505384 2.248595 1.419762 1.210113 0.102835 3.974277 2.022522 2.257360 -4.649377 7.582582 2.029725 13.610629 -2.499600 1.912300 4.919200 6.093640 3.466215 -0.731990 -103.511150 -3.910681 30.172367 11.453824 -11.830517 -1.959669 -3.048431 -2.292855 10.865619 17.832504 5.415082 3.066900 -7.125000 0.000000 0.000000 -5.568000 38.742400 0.861400 -8.373523 -4.213474 -0.001901 99.616746 0.109168 35.510661 -12.011351 17.655309 -3.155759 0.906294 2.379324 -17.739323 -14.531032 2.230316 -0.050800 7.125000 0.000000 0.000000 8.182700 -29.747600 3.072500 
49.419034 17.469677 0.344443 -165.702999 -84.675948 161.570726 4.026981 -0.385298 0.091444 -25.765649 -20.194344 -1.965555 0.688149 12.817685 35.060008 -3.651606 17.305973 -22.544471 0.024800 1.016100 2.793200 -6.794677 0.943378 -1.612687 34.649221 14.490533 0.405483 -1.258942 -12.388510 33.310958 1.167271 -16.687001 -34.584825 -0.030100 1.119100 -3.076500 -4.178413 1.730210 2.886368 3.458251 2.234486 1.421272 1.038702 0.109184 4.010656 2.016623 2.200827 -4.614826 7.637279 1.940894 13.649860 -2.448300 1.873800 4.910700 6.083640 3.473676 -0.730076 -103.375970 -3.939016 30.296179 11.443529 -11.827814 -1.964245 -3.041746 -2.239544 10.845159 17.824744 5.183320 2.961300 -7.125000 0.000000 0.000000 -5.535200 38.440000 0.897500 -8.394064 -4.212626 0.010663 99.815732 0.135847 35.259852 -11.978852 17.594509 -3.131380 0.915550 2.372572 -17.499068 -14.547134 2.228561 -0.051000 7.125000 0.000000 0.000000 8.171300 -29.747000 3.068300 
49.416232 17.470495 0.342575 -164.938060 -84.716280 160.794932 4.030906 -0.373602 0.096497 -25.708666 -20.215531 -1.944593 0.693112 12.816504 35.066702 -3.623743 17.205465 -22.485461 0.027300 1.067300 2.934100 -6.791045 0.947719 -1.618295 34.722933 14.441019 0.444453 -1.251674 -12.377331 33.281259 1.191300 -16.778810 -34.607060 -0.032500 1.163500 -3.198800 -4.010461 1.712279 2.899748 3.431825 2.219513 1.418653 0.862099 0.112714 4.033458 2.108531 2.204842 -4.648858 7.625979 1.942831 13.717199 -2.453400 1.885100 4.954300 6.090171 3.494588 -0.735305 -103.269039 -3.942491 30.379483 11.439120 -11.833647 -1.969111 -3.031986 -2.213012 10.787534 17.802534 5.049075 2.897100 -7.125000 0.000000 0.000000 -5.535600 38.264500 0.921500 -8.407074 -4.216977 0.013810 99.994210 0.099184 35.025111 -11.976478 17.597632 -3.129682 0.931023 2.357552 -17.312878 -14.562737 2.347010 -0.089300 7.125000 0.000000 0.000000 8.145300 -29.611600 3.084900 
49.412379 17.471896 0.339422 -163.440520 -84.664218 159.290191 4.030765 -0.355973 0.103333 -25.568685 -20.275144 -1.895315 0.694315 12.808800 35.066798 -3.622419 17.210509 -22.526144 0.033100 1.174800 3.230000 -6.800548 0.964888 -1.623435 34.963624 14.567583 0.559019 -1.240690 -12.372744 33.258068 1.202996 -16.901772 -34.733408 -0.033400 1.180200 -3.244800 -3.768660 1.710798 2.902071 3.422710 2.225231 1.418697 0.697726 0.121721 4.064549 2.188620 2.249727 -4.704440 7.578936 2.012361 13.794604 -2.472900 1.928200 5.016500 6.098992 3.508358 -0.740303 -103.189423 -3.985221 30.389853 11.435214 -11.816792 -1.958027 -3.036351 -2.251284 10.770404 17.814908 5.233191 2.979900 -7.125000 0.000000 0.000000 -5.554000 38.499000 0.892600 -8.417929 -4.214574 0.012166 100.113880 0.028952 34.933760 -12.000002 17.658782 -3.149752 0.933285 2.359358 -17.340870 -14.566509 2.400082 -0.104500 7.125000 0.000000 0.000000 8.135200 -29.557700 3.091500 
49.406541 17.470845 0.336970 -163.502459 -84.642481 159.333717 4.035757 -0.350838 0.103881 -25.616359 -20.328913 -1.819484 0.692410 12.807374 35.071857 -3.641629 17.307327 -22.639164 0.034900 1.205100 3.313200 -6.805947 0.978102 -1.620850 35.071389 14.795422 0.727875 -1.229887 -12.360985 33.233909 1.174070 -16.960945 -34.958150 -0.030500 1.127800 -3.100400 -3.654013 1.703529 2.895722 3.384643 2.228016 1.413462 0.532294 0.131082 4.104569 2.073668 2.388871 -4.779334 7.643202 2.206738 13.864432 -2.369200 2.026200 5.073200 6.086634 3.517754 -0.743338 -103.083788 -4.040276 30.302762 11.434480 -11.809073 -1.954075 -3.022761 -2.241953 10.775528 17.764267 5.205505 2.955600 -7.125000 0.000000 0.000000 -5.602800 38.453100 0.906800 -8.451430 -4.208064 0.016595 100.265876 -0.014851 34.895867 -12.001575 17.683076 -3.159450 0.924607 2.367270 -17.374599 -14.527293 2.358349 -0.089600 7.125000 0.000000 0.000000 8.173500 -29.609400 3.096200 
49.402104 17.467109 0.333934 -163.794576 -84.675226 159.624915 4.040107 -0.351264 0.105697 -25.695281 -20.423259 -1.748261 0.686052 12.803479 35.059691 -3.631660 17.319815 -22.737028 0.035700 1.219500 3.352800 -6.805400 0.987233 -1.614754 35.118718 14.962350 0.849809 -1.225691 -12.355512 33.232263 1.070327 -16.800484 -35.212503 -0.018900 0.888200 -2.441300 -3.597699 1.681799 2.889035 3.347287 2.209178 1.401006 0.378857 0.133422 4.094548 2.122848 2.423592 -4.766799 7.717635 2.232408 13.931684 -2.320500 2.052100 5.101000 6.087658 3.535995 -0.746969 -102.972579 -4.046597 30.171989 11.431756 -11.813924 -1.954517 -3.007576 -2.209755 10.820911 17.711611 5.080840 2.888300 -7.125000 0.000000 0.000000 -5.638000 38.282800 0.936200 -8.474752 -4.218046 0.020967 100.432230 -0.082160 34.831181 -11.987778 17.678700 -3.160303 0.919508 2.366625 -17.306289 -14.472078 2.343601 -0.084400 7.125000 0.000000 0.000000 8.223800 -29.626300 3.112300 
